<svg width="48" height="91" viewBox="0 0 48 91" fill="none" xmlns="http://www.w3.org/2000/svg">
<path d="M48 45.8016C42.2971 44.912 37.2225 42.6374 33.3193 39.2238C29.6961 36.0529 27.0324 31.9014 25.4104 27.1602C25.8611 25.8864 26.2436 24.5688 26.5544 23.2108C28.0706 16.5556 27.7632 9.2668 25.6665 2.13642L25.0381 0L24.3586 2.12294C21.5686 10.8337 21.531 19.6187 23.9488 27.086C23.1019 29.3943 22.0091 31.5644 20.6841 33.5492C20.4826 33.8491 18.6113 36.5853 16.0194 38.8936C10.1969 44.0796 2.5885 45.4343 0.0819546 45.7982C0.0546353 46.2464 0.0273193 46.6946 0 47.1427C4.36084 47.6516 10.6784 49.2623 16.0125 54.0474C19.5606 57.2284 22.1389 61.353 23.6619 66.0066C21.3876 72.8303 21.1929 80.7425 23.3273 88.7658L23.9215 91L24.6386 88.7995C27.193 80.9548 27.2578 72.955 25.0996 66.0201C26.7797 61.198 29.5492 56.9689 33.3159 53.7171C37.2601 50.3103 42.3381 48.0357 48 47.136C48 46.6912 48 46.2498 48 45.805V45.8016ZM24.9801 4.87265C26.6056 11.7975 26.4553 18.6954 24.7001 24.7879C23.119 18.6954 23.1599 11.8076 24.9801 4.87265ZM24.0581 85.9083C22.8082 79.7956 22.9448 73.8177 24.3552 68.453C25.6562 73.885 25.5982 79.9001 24.0581 85.9083ZM32.4178 52.6995C28.8833 55.7524 26.1855 59.6175 24.3995 64.0083C22.7638 59.7759 20.2538 56.0187 16.9345 53.0432C12.782 49.3196 8.07968 47.4292 4.06716 46.4823C8.98805 45.249 13.3865 43.0013 16.9277 39.8944C20.2436 36.983 22.8628 33.3066 24.6659 29.0742C26.387 33.4211 28.9926 37.2424 32.4109 40.2348C35.7541 43.1597 39.9101 45.286 44.5612 46.4755C39.9408 47.6718 35.7849 49.7914 32.4143 52.7028L32.4178 52.6995Z" fill="#D9C6E2"/>
</svg>
