<svg width="452" height="254" viewBox="0 0 452 254" fill="none" xmlns="http://www.w3.org/2000/svg">
<path d="M73.6668 118.689C71.3605 124.324 68.1111 128.68 63.9253 131.756C59.7396 134.832 53.4559 136.37 45.0843 136.37C34.5751 136.37 26.9679 133.145 22.2692 126.699C17.5672 120.253 15.2212 110.196 15.2212 96.5299V83.9754C15.2212 70.313 17.5705 60.2555 22.2692 53.8063C26.9679 47.3604 34.5751 44.1358 45.0843 44.1358C53.4559 44.1358 59.7362 45.6737 63.9253 48.7462C68.1111 51.822 71.3605 56.1777 73.6668 61.8133L70.2057 63.4802C68.2402 58.5291 65.464 54.7059 61.8738 52.0138C58.2869 49.325 52.6882 47.9789 45.0843 47.9789C40.8985 47.9789 37.3083 48.5147 34.317 49.5796C31.3258 50.6479 28.6323 52.4636 26.2432 55.0234C23.8509 57.5866 22.0541 61.2808 20.8596 66.1061C19.6618 70.9315 19.0662 76.8879 19.0662 83.9788V96.5332C19.0662 103.624 19.6618 109.581 20.8596 114.403C22.0541 119.228 23.8509 122.922 26.2432 125.485C28.6323 128.048 31.3258 129.864 34.317 130.929C37.3083 131.997 40.8952 132.53 45.0843 132.53C52.6882 132.53 58.2869 131.184 61.8738 128.495C65.464 125.806 68.2402 121.983 70.2057 117.029L73.6668 118.695V118.689Z" fill="white"/>
<path d="M101.432 109.534H99.4202V90.1138H79.3185V109.534H77.3066V70.69H79.3185V88.1029H99.4202V70.69H101.432V109.534Z" fill="white"/>
<path d="M171.115 90.0443L180.228 109.534H178.017L168.637 89.4424C168.726 89.3994 169.116 89.2076 169.808 88.8735C170.499 88.5395 170.979 88.2948 171.247 88.136C171.515 87.9806 171.962 87.6995 172.587 87.2993C173.213 86.8958 173.683 86.5055 173.994 86.1285C174.305 85.7482 174.652 85.3017 175.033 84.789C175.41 84.2764 175.691 83.6943 175.87 83.0494C176.049 82.4012 176.138 81.7 176.138 80.9393C176.138 78.1281 174.798 76.0512 172.118 74.7117C169.437 73.3723 166.109 72.7042 162.135 72.7042H156.774V109.538H154.762V70.6934H162.135C167.406 70.6934 171.393 71.6095 174.096 73.4384C176.8 75.2707 178.15 77.771 178.15 80.9393C178.15 82.9932 177.458 84.8122 176.072 86.3964C174.685 87.9806 173.034 89.1977 171.112 90.0476L171.115 90.0443Z" fill="white"/>
<path d="M190.68 70.69V90.1105C190.68 96.7647 191.739 101.441 193.864 104.14C195.985 106.842 198.9 108.191 202.609 108.191C206.318 108.191 209.23 106.842 211.355 104.14C213.476 101.438 214.538 96.7614 214.538 90.1105V70.69H216.546V90.1105C216.546 103.505 211.901 110.202 202.609 110.202C193.318 110.202 188.672 103.505 188.672 90.1105V70.69H190.68Z" fill="white"/>
<path d="M238.855 69.8864C244.394 69.8864 248.325 71.1134 250.648 73.5707L249.308 75.0424C247.164 72.9456 243.769 71.8939 239.123 71.8939C232.155 71.8939 228.67 74.6621 228.67 80.1985C228.67 82.3416 229.517 84.0482 231.215 85.3215C232.912 86.5948 234.984 87.5672 237.426 88.2385C239.871 88.9099 242.303 89.6144 244.729 90.3486C247.154 91.0828 249.215 92.2635 250.913 93.894C252.61 95.5245 253.461 97.6544 253.461 100.29C253.461 103.369 252.187 105.827 249.642 107.656C247.094 109.488 243.412 110.401 238.587 110.401C236.218 110.401 233.885 110.087 231.585 109.461C229.286 108.836 227.575 107.92 226.46 106.716L227.8 105.241C230.077 107.341 233.584 108.39 238.319 108.39C242.651 108.39 245.923 107.586 248.137 105.979C250.347 104.372 251.452 102.496 251.452 100.353C251.452 98.21 250.602 96.3116 248.908 94.9292C247.21 93.5467 245.136 92.5049 242.684 91.8071C240.232 91.1093 237.796 90.3949 235.381 89.664C232.962 88.9331 230.904 87.7854 229.21 86.2211C227.512 84.6601 226.662 82.6029 226.662 80.0596C226.662 76.6233 227.81 74.0668 230.113 72.39C232.413 70.7165 235.328 69.8798 238.859 69.8798L238.855 69.8864Z" fill="white"/>
<path d="M131.027 138.304C130.689 136.264 129.194 128.687 122.682 124.301C118.334 121.374 113.529 120.842 110.184 120.842C106.839 120.842 103.88 121.057 101.531 121.483C99.1784 121.91 96.8291 122.744 94.483 123.98C92.1304 125.221 90.3601 127.205 89.1623 129.937C87.9644 132.672 87.3688 136.171 87.3688 140.441C87.3688 144.201 89.0994 147.532 92.5605 150.432C96.0217 153.336 100.227 155.813 105.184 157.864C110.138 159.914 115.118 162.008 120.117 164.141C125.117 166.277 129.346 169.009 132.807 172.34C136.268 175.67 137.999 179.513 137.999 183.869C137.999 192.408 135.884 198.775 131.656 202.955C127.427 207.139 120.183 209.232 109.929 209.232C101.554 209.232 94.9761 207.546 90.1913 204.172C85.4033 200.799 82.1176 195.57 80.3208 188.479L83.911 186.941C85.6184 193.86 88.5435 198.662 92.6896 201.355C96.8324 204.043 102.58 205.389 109.929 205.389C118.132 205.389 124.22 203.809 128.194 200.65C132.168 197.492 134.154 191.896 134.154 183.869C134.154 180.112 132.423 176.781 128.962 173.878C125.501 170.974 121.272 168.497 116.272 166.446C111.273 164.396 106.296 162.305 101.339 160.169C96.3824 158.036 92.1767 155.3 88.7156 151.97C85.2544 148.64 83.5238 144.797 83.5238 140.441C83.5238 132.159 85.6151 126.18 89.8042 122.505C93.99 118.834 100.783 116.995 110.184 116.995C114.313 116.995 120.438 117.578 126.077 122.118C133.214 127.87 134.422 136.211 134.663 138.301H131.027V138.304Z" fill="white"/>
<path d="M152.621 140.242H176.012L161.807 173.772V187.365H159.993V173.772L145.788 140.242H147.724L160.9 171.235L173.292 142.055H152.621V140.242Z" fill="white"/>
<path d="M188.467 173.471H211.798V142.779L198.198 156.372L184.598 142.779V175.283L182.785 175.224V140.242H184.598L198.198 153.835L211.798 140.242H213.611V175.283L188.467 175.224V173.471Z" fill="white"/>
<path d="M240.083 162.233L239.176 160.662L242.561 158.727C245.34 157.196 246.73 154.761 246.73 151.418C246.73 145.174 241.975 142.055 232.465 142.055H226.903V187.365H225.09V140.242H232.465C237.786 140.242 241.793 141.218 244.493 143.173C247.194 145.127 248.544 147.876 248.544 151.418C248.544 155.446 246.853 158.406 243.468 160.298L240.083 162.233Z" fill="white"/>
<path d="M278.83 175.283H277.017V157.764H258.884V175.283H257.071V140.242H258.884V155.949H277.017V140.242H278.83V175.283Z" fill="white"/>
<path d="M313.703 171.599C311.526 174.46 307.919 175.888 302.883 175.888C297.847 175.888 294.24 174.46 292.063 171.599C289.886 168.738 288.8 164.128 288.8 157.764C288.8 151.401 289.889 146.791 292.063 143.93C294.24 141.073 297.844 139.64 302.883 139.64C307.923 139.64 311.526 141.069 313.703 143.93C315.881 146.791 316.966 151.401 316.966 157.764C316.966 164.128 315.877 168.741 313.703 171.599ZM307.962 142.085C306.592 141.661 304.898 141.45 302.883 141.45C300.868 141.45 299.174 141.661 297.807 142.085C296.437 142.508 295.177 143.292 294.028 144.439C292.88 145.587 292.023 147.26 291.461 149.453C290.895 151.649 290.614 154.417 290.614 157.761C290.614 161.105 290.895 163.873 291.461 166.069C292.023 168.265 292.88 169.935 294.028 171.083C295.177 172.231 296.437 173.018 297.807 173.438C299.177 173.861 300.868 174.073 302.883 174.073C304.898 174.073 306.589 173.861 307.962 173.438C309.332 173.014 310.593 172.231 311.741 171.083C312.889 169.935 313.746 168.265 314.309 166.069C314.871 163.873 315.156 161.105 315.156 157.761C315.156 154.417 314.875 151.649 314.309 149.453C313.743 147.257 312.889 145.587 311.741 144.439C310.593 143.292 309.332 142.505 307.962 142.085Z" fill="white"/>
<path d="M326.939 175.283V140.242H328.752L348.457 171.959V140.242H350.27V175.283H348.457L328.752 143.507V175.283H326.939Z" fill="white"/>
<path d="M361.755 140.242H363.569V175.283H361.755V140.242Z" fill="white"/>
<path d="M379.28 173.471H398.984L386.592 144.291L373.416 175.283H371.48L386.592 139.637L401.704 175.283H379.28V173.471Z" fill="white"/>
<path d="M363.734 122.198H151.026V123.521H363.734V122.198Z" fill="white"/>
<path d="M149.233 88.6883C146.414 88.3774 140.987 87.2001 136.311 82.8179C129.975 76.8846 129.27 69.1059 129.253 66.1458C129.257 65.9408 129.26 65.7556 129.257 65.5968L128.052 65.5869C128.049 65.7456 128.046 65.9309 128.049 66.1359C128.075 70.5214 126.441 77.3245 121.011 82.5202C115.521 87.7689 109.003 88.5296 106.994 88.685L106.908 89.8889C109.986 90.1105 115.905 91.2052 121.011 96.0537C127.285 102.013 128.013 109.696 128.059 112.431C128.059 112.567 128.059 112.693 128.059 112.805L129.267 112.798C129.267 112.686 129.267 112.56 129.267 112.425C129.277 109.627 129.919 101.749 136.315 95.756C140.993 91.3705 146.42 90.1965 149.236 89.8856C149.236 89.4854 149.236 89.0852 149.236 88.6883H149.233ZM135.484 94.8763C131.249 98.845 129.406 103.591 128.621 107.302C127.797 103.687 125.948 99.0865 121.838 95.1805C118.202 91.7244 114.175 90.0807 110.948 89.3068C114.115 88.5296 118.188 86.8826 121.841 83.3967C125.935 79.4908 127.784 74.8804 128.611 71.2424C129.399 74.9796 131.245 79.7289 135.487 83.7009C138.955 86.9487 142.807 88.523 145.821 89.2903C142.807 90.0542 138.955 91.6285 135.487 94.8796L135.484 94.8763Z" fill="white"/>
</svg>
