<svg width="43" height="49" viewBox="0 0 43 49" fill="none" xmlns="http://www.w3.org/2000/svg">
<path d="M42.9966 23.9732C40.1327 23.6506 34.6198 22.4287 29.8701 17.8812C23.4328 11.724 22.7168 3.65175 22.7 0.580025C22.7034 0.367235 22.7068 0.175036 22.7034 0.0102959L21.4798 0C21.4765 0.164741 21.4731 0.356939 21.4765 0.569729C21.5033 5.12069 19.8428 12.1805 14.3266 17.5723C8.74992 23.0191 2.1278 23.8084 0.0873812 23.9697L0 25.219C3.12617 25.449 9.13985 26.585 14.3266 31.6164C20.7 37.8011 21.4395 45.7738 21.4866 48.6122C21.4866 48.7529 21.4866 48.8833 21.4866 49L22.7135 48.9931C22.7135 48.8764 22.7135 48.746 22.7135 48.6053C22.7236 45.7018 23.3757 37.5265 29.8734 31.3076C34.6266 26.7566 40.1394 25.5382 43 25.2156C43 24.8003 43 24.385 43 23.9732H42.9966ZM29.0297 30.3946C24.727 34.5131 22.8547 39.4382 22.058 43.289C21.221 39.5377 19.3419 34.7637 15.167 30.7104C11.4727 27.1238 7.38179 25.4181 4.10435 24.615C7.32128 23.8084 11.4593 22.0993 15.1703 18.4818C19.3285 14.4285 21.2075 9.64419 22.0479 5.86888C22.8479 9.74715 24.7237 14.6756 29.0331 18.7976C32.5559 22.1679 36.4687 23.8016 39.531 24.5978C36.4687 25.3906 32.5559 27.0243 29.0331 30.3981L29.0297 30.3946Z" fill="white"/>
</svg>
